<svg width="266" height="134" viewBox="0 0 266 134" fill="none" xmlns="http://www.w3.org/2000/svg">
<path d="M195.442 59.5242C191.904 56.9667 187.539 55.6929 183.117 55.9281C179.774 55.7968 176.45 56.474 173.451 57.8974C171.146 59.065 169.161 60.7369 167.654 62.7778C166.25 64.6759 165.256 66.8242 164.729 69.0966C164.231 71.1811 163.967 73.3111 163.944 75.4497C163.963 77.6508 164.226 79.8437 164.729 81.9912C165.255 84.2795 166.25 86.4448 167.654 88.3614C169.197 90.4004 171.22 92.0609 173.558 93.2076C176.636 94.602 180.02 95.26 183.421 95.1255C185.329 95.1498 187.237 95.0354 189.128 94.783C190.55 94.5967 191.952 94.293 193.319 93.8755C194.379 93.5485 195.406 93.1301 196.387 92.6254L198.795 91.3411L195.228 81.8028C193.232 82.8531 191.112 83.6695 188.914 84.2345C187.29 84.6119 185.627 84.813 183.956 84.8338C182.385 84.9234 180.837 84.4403 179.622 83.481C178.685 82.6814 178.056 81.6013 177.838 80.4158C177.817 80.3202 177.818 80.2214 177.842 80.1263C177.865 80.0312 177.909 79.9421 177.972 79.8654C178.035 79.7886 178.115 79.7261 178.206 79.6821C178.297 79.6382 178.396 79.6139 178.498 79.6109H199.08L199.704 74.4737C199.858 73.206 199.935 71.931 199.936 70.6549C199.972 65.6375 198.474 61.9216 195.442 59.5242ZM186.97 71.8194H177.749C177.693 70.2601 178.225 68.7338 179.247 67.5212C179.737 67.0108 180.337 66.6098 181.006 66.3465C181.675 66.0831 182.395 65.9639 183.117 65.9971C184.035 65.9668 184.932 66.266 185.632 66.8362C186.33 67.4145 186.78 68.2193 186.899 69.0966C186.937 69.5525 186.937 70.0107 186.899 70.4666L186.97 71.8194ZM156.81 61.5448C155.515 59.7543 153.765 58.3103 151.727 57.3494C149.223 56.2322 146.479 55.6983 143.719 55.7911C142.411 55.7788 141.107 55.946 139.849 56.2877C138.704 56.616 137.598 57.0579 136.549 57.6062V41.1841L134.337 39.8313L122.637 41.7663V94.4406H130.075C130.467 94.1837 131.484 93.2761 132.179 92.7281C132.356 92.599 132.572 92.529 132.795 92.529C133.017 92.529 133.233 92.599 133.41 92.7281C134.62 93.4864 135.943 94.0638 137.334 94.4406C138.771 94.8467 140.259 95.0599 141.757 95.0741C144.864 95.1981 147.957 94.6112 150.782 93.3617C153.034 92.2701 154.989 90.6865 156.489 88.7382C157.906 86.8557 158.913 84.7182 159.45 82.4536C159.994 80.2078 160.269 77.9097 160.27 75.6039C160.282 73.022 160.019 70.4456 159.485 67.9151C159.051 65.64 158.141 63.473 156.81 61.5448ZM144.985 82.4536C144.635 83.1959 144.055 83.8163 143.324 84.2301C142.593 84.6439 141.747 84.8308 140.901 84.7654H137.013C136.89 84.7654 136.772 84.7184 136.685 84.6349C136.598 84.5514 136.549 84.4382 136.549 84.3201V66.8362C136.549 66.5864 136.652 66.3469 136.836 66.1703C137.02 65.9936 137.27 65.8944 137.53 65.8944H140.633C141.517 65.8619 142.39 66.0822 143.143 66.5274C143.895 66.9725 144.493 67.6225 144.86 68.3945C145.794 70.652 146.214 73.0751 146.091 75.5011C146.211 77.8663 145.835 80.2306 144.985 82.4536ZM228.455 83.0187C227.73 83.2242 226.981 83.4125 226.208 83.5838C225.557 83.7556 224.886 83.8477 224.21 83.8577C223.885 83.8803 223.558 83.8372 223.251 83.731C222.943 83.6248 222.663 83.458 222.427 83.2413C221.996 82.8145 221.673 82.2991 221.482 81.7343C221.276 81.0951 221.156 80.4334 221.125 79.7651C221.125 79.063 221.125 78.3951 221.125 77.7958V66.6821C221.129 66.508 221.205 66.3425 221.335 66.2209C221.465 66.0993 221.639 66.0313 221.82 66.0314H229.383V56.613H221.785C221.608 56.6086 221.44 56.538 221.317 56.4165C221.194 56.2949 221.125 56.132 221.125 55.9623V48.7359H212.938L210.459 54.4383C210.296 54.8235 210.054 55.1735 209.748 55.4676C209.441 55.7617 209.077 55.994 208.676 56.1507L205.109 57.6919C204.734 57.8631 204.342 58.0344 203.914 58.1885V66.0656H206.892C206.941 66.0656 206.988 66.075 207.033 66.0932C207.077 66.1115 207.118 66.1383 207.151 66.1719C207.184 66.2056 207.21 66.2454 207.227 66.2889C207.244 66.3325 207.251 66.3789 207.249 66.4252V80.587C207.249 85.7243 208.265 89.4403 210.299 91.7178C211.452 92.9043 212.868 93.8278 214.442 94.4204C216.016 95.0131 217.709 95.2598 219.395 95.1426C220.952 95.0982 222.506 94.9725 224.05 94.7659C226.499 94.4089 228.894 93.7707 231.184 92.8651L228.455 83.0187Z" fill="white"/>
<path d="M114.682 109.202C114.004 109.87 113.309 110.521 112.613 111.154L112.47 111.274C111.026 112.558 109.492 113.791 107.922 114.939C107.155 115.504 106.371 116.035 105.568 116.651L105.354 116.805C104.551 117.319 103.749 117.833 102.928 118.329C101.252 119.322 99.5397 120.23 97.7562 121.069L97.453 121.206C96.6147 121.6 95.7586 121.994 94.9025 122.336L94.5993 122.473C92.8158 123.192 91.0322 123.843 89.1417 124.408L88.8206 124.511C87.9288 124.785 87.0371 125.025 86.1275 125.265L85.6816 125.384C84.772 125.607 83.898 125.813 82.9349 126.001H82.6317C81.7399 126.172 80.8482 126.343 79.9029 126.48H79.6353C78.6901 126.617 77.8518 126.737 76.8173 126.84H76.2823C75.3548 126.84 74.4096 126.994 73.4643 127.045H73.0006C72.0018 127.045 71.0208 127.045 70.022 127.045C53.3479 127.045 37.3566 120.686 25.5662 109.366C13.7758 98.0452 7.15202 82.6917 7.15202 66.6824C7.15202 50.6731 13.7758 35.3195 25.5662 23.9992C37.3566 12.679 53.3479 6.31931 70.022 6.31931C71.0208 6.31931 72.0018 6.31931 73.0006 6.31931H73.4643C74.4096 6.31931 75.3548 6.43918 76.2823 6.5248H76.8173C77.7626 6.62755 78.6901 6.74742 79.6353 6.88441H79.9029L82.6317 7.36389H82.9349C83.8445 7.53514 84.7184 7.75775 85.6816 7.98037L86.1275 8.08311C87.0371 8.32285 87.911 8.56259 88.8206 8.83658L89.1417 8.93933C90.9965 9.51014 92.8158 10.1609 94.5993 10.8915L94.9025 11.0114C95.7586 11.371 96.686 11.7477 97.453 12.1416L97.7562 12.2786C99.5397 13.1176 101.323 13.991 102.928 15.0356C103.749 15.515 104.551 16.0288 105.354 16.5596L105.568 16.6966C106.371 17.2275 107.155 17.7755 107.922 18.3234C109.492 19.4879 111.026 20.7037 112.47 22.0051L112.613 22.125L114.682 24.0601C116.665 26.1564 118.495 28.3822 120.158 30.7214L126.311 27.4849C124.29 24.8243 122.072 22.3063 119.676 19.9502L119.498 19.916L117.393 17.9467L117.072 17.6556C116.341 17.0049 115.592 16.3884 114.825 15.7548L114.397 15.4294C113.63 14.7958 112.845 14.1965 112.042 13.5971L111.811 13.443C111.026 12.8779 110.223 12.3128 109.421 11.7306L109.135 11.5422C108.297 10.9942 107.459 10.4634 106.603 9.94966L106.121 9.67567C105.265 9.16194 104.337 8.68246 103.517 8.20298L103.196 8.04886C102.34 7.58651 101.412 7.14128 100.556 6.7303L100.307 6.5933C99.397 6.16519 98.5231 5.77134 97.5243 5.37748L97.0071 5.15486C96.0797 4.77813 95.1344 4.41852 94.1891 4.07603L93.7789 3.93904C92.8336 3.59655 91.8883 3.28832 90.943 2.9972H90.7112C89.7302 2.68897 88.7314 2.4321 87.7327 2.17524L87.1798 2.02112C86.2345 1.76426 85.2535 1.61014 84.2547 1.33615L83.8267 1.2334C82.8279 1.04504 81.8113 0.856669 80.7947 0.702551H80.652C79.5105 0.531308 78.476 0.411438 77.4059 0.291568H76.7995C75.7829 0.13745 74.7484 0.0518286 73.6961 0.000455803H73.1254C72.0374 0.000455803 70.9317 0.000455803 69.8437 0.000455803C58.2346 -0.04072 46.7995 2.70849 36.5805 7.99749C34.6008 9.04207 32.6746 10.1552 30.8197 11.4223C21.3431 17.5522 13.5776 25.8208 8.20423 35.503C2.83088 45.1853 0.0137903 55.9854 0 66.9564C0.0188936 84.7343 7.38404 101.779 20.4787 114.348C33.5733 126.917 51.3274 133.984 69.8437 133.998C70.9317 133.998 72.0374 133.998 73.1254 133.998H73.6961C74.7484 133.998 75.7829 133.861 76.7995 133.775H77.4059C78.4582 133.673 79.5105 133.536 80.5628 133.381H80.7055C81.7221 133.227 82.7387 133.039 83.7375 132.851L84.2547 132.748C85.2535 132.542 86.2345 132.32 87.2333 132.08L87.7862 131.943C88.7849 131.686 89.7837 131.412 90.7647 131.104H90.9965C91.9359 130.818 92.8812 130.51 93.8324 130.179L94.2426 130.025C95.1879 129.683 96.1331 129.323 97.0606 128.946L97.5778 128.724C98.5053 128.347 99.3614 127.936 100.36 127.508L100.61 127.388C101.502 126.96 102.393 126.515 103.25 126.069L103.571 125.898C104.444 125.436 105.354 124.939 106.175 124.425L106.656 124.151C107.512 123.638 108.44 123.124 109.189 122.576L109.474 122.371C110.277 121.84 111.079 121.275 111.864 120.658L112.096 120.504C112.898 119.905 113.683 119.305 114.45 118.689L114.878 118.346C115.651 117.73 116.4 117.096 117.126 116.446L117.447 116.154C118.16 115.521 118.856 114.87 119.551 114.202C119.583 114.154 119.626 114.113 119.676 114.082C122.068 111.728 124.285 109.216 126.311 106.565L120.158 103.311C118.466 105.386 116.637 107.353 114.682 109.202Z" fill="white"/>
<path d="M53.9168 36.921H40.3261V49.2504H45.0882C45.6937 49.2504 46.2744 49.4814 46.7025 49.8924C47.1306 50.3035 47.3712 50.861 47.3712 51.4423V83.8072C47.3712 83.9162 47.3261 84.0207 47.2458 84.0978C47.1655 84.1749 47.0566 84.2182 46.9431 84.2182H40.3261V96.8559H53.9168C53.9604 96.8535 54.0041 96.8598 54.0451 96.8743C54.0861 96.8887 54.1237 96.911 54.1554 96.9399C54.1871 96.9687 54.2124 97.0035 54.2296 97.0421C54.2469 97.0806 54.2557 97.1222 54.2556 97.1641V111.788H61.5325V21.8345H54.2556V36.6127C54.2557 36.6547 54.2469 36.6962 54.2296 36.7348C54.2124 36.7733 54.1871 36.8081 54.1554 36.837C54.1237 36.8658 54.0861 36.8882 54.0451 36.9026C54.0041 36.917 53.9604 36.9233 53.9168 36.921Z" fill="url(#paint0_linear_121_3607)"/>
<path d="M104.641 75.3478C104.272 74.0135 103.727 72.7302 103.018 71.5291C102.269 70.2682 101.338 69.1152 100.253 68.1042C99.3026 67.1842 98.2146 66.4051 97.0251 65.7925C96.962 65.7581 96.9096 65.7083 96.8732 65.6481C96.8367 65.588 96.8175 65.5196 96.8175 65.45C96.8175 65.3804 96.8367 65.312 96.8732 65.2518C96.9096 65.1917 96.962 65.1419 97.0251 65.1075C97.9924 64.5874 98.8806 63.942 99.6647 63.1896C100.608 62.2899 101.418 61.27 102.073 60.1586C102.687 59.0727 103.171 57.9238 103.517 56.7337C103.832 55.6574 103.999 54.5465 104.017 53.4288C104.026 51.308 103.689 49.199 103.018 47.1784C102.394 45.2277 101.321 43.4368 99.8788 41.9384C98.2595 40.3445 96.3088 39.0958 94.1536 38.2738C91.4952 37.3073 88.666 36.8478 85.8244 36.921H82.4178C82.331 36.9211 82.2474 36.8892 82.1843 36.8318C82.1213 36.7744 82.0836 36.696 82.079 36.6127V21.8345H74.8021V36.6127C74.8022 36.6547 74.7933 36.6962 74.7761 36.7348C74.7588 36.7733 74.7336 36.8081 74.7019 36.837C74.6701 36.8658 74.6326 36.8882 74.5916 36.9026C74.5505 36.917 74.5069 36.9233 74.4632 36.921H71.6114C71.5383 36.9174 71.4652 36.9294 71.3974 36.9561C71.3295 36.9827 71.2687 37.0233 71.2191 37.0751L68.1316 40.6027C67.9972 40.7291 67.9203 40.9015 67.9176 41.0822V49.2504H81.9006C82.9004 49.1428 83.9124 49.2283 84.8773 49.5018C85.8421 49.7753 86.7402 50.2313 87.5188 50.843C88.6075 51.9605 89.2021 53.44 89.1775 54.9699C89.1827 55.6746 89.0255 56.3717 88.7172 57.0111C88.4088 57.6506 87.9569 58.2167 87.3939 58.6688C85.808 59.7641 83.8643 60.2747 81.9185 60.1072H72.4121V71.8202H82.5784C83.5781 71.7267 84.5869 71.8488 85.5312 72.1777C86.4755 72.5065 87.3313 73.0338 88.036 73.721C89.1694 75.0378 89.7653 76.7055 89.7126 78.413C89.751 79.2357 89.6125 80.0571 89.3056 80.8261C88.9988 81.5951 88.5301 82.2951 87.929 82.8825C87.198 83.4914 86.3492 83.9561 85.4312 84.2499C84.5131 84.5437 83.5437 84.6609 82.5784 84.5949H67.9176V96.8388H74.4632C74.5069 96.8365 74.5505 96.8427 74.5916 96.8571C74.6326 96.8716 74.6701 96.8939 74.7019 96.9228C74.7336 96.9516 74.7588 96.9864 74.7761 97.025C74.7933 97.0635 74.8022 97.1051 74.8021 97.147V111.942H82.0433V97.147C82.0479 97.0637 82.0856 96.9853 82.1487 96.9279C82.2117 96.8706 82.2953 96.8387 82.3822 96.8388H87.3939C89.938 96.8414 92.4603 96.3885 94.8313 95.5031C97.0045 94.6671 98.9548 93.3739 100.539 91.7186C102.125 90.0811 103.34 88.1451 104.106 86.0334C104.889 83.7527 105.269 81.3622 105.229 78.961C105.204 77.7366 105.006 76.5212 104.641 75.3478Z" fill="url(#paint1_linear_121_3607)"/>
<path d="M251.906 58.4158C254.36 58.4158 256.687 58.7967 258.888 59.5583C261.13 60.3199 263.034 61.3565 264.6 62.6682L260.538 68.8882C257.83 67.1957 255.101 66.3494 252.35 66.3494C251.166 66.3494 250.277 66.5398 249.685 66.9206C249.135 67.2591 248.86 67.7457 248.86 68.3804C248.86 68.9305 249.008 69.3747 249.304 69.7132C249.6 70.0517 250.214 70.4326 251.144 70.8557C252.118 71.2365 253.641 71.7442 255.714 72.3789C259.184 73.3944 261.744 74.7273 263.394 76.3774C265.044 77.9853 265.869 80.249 265.869 83.1686C265.869 85.4534 265.192 87.4633 263.838 89.1981C262.527 90.8906 260.686 92.2023 258.316 93.1331C255.989 94.064 253.345 94.5294 250.383 94.5294C247.506 94.5294 244.798 94.0852 242.259 93.1966C239.762 92.2657 237.647 90.9964 235.912 89.3885L241.307 83.359C242.619 84.3745 244.015 85.1784 245.496 85.7708C247.019 86.3631 248.542 86.6593 250.066 86.6593C251.42 86.6593 252.456 86.4478 253.175 86.0247C253.937 85.5592 254.318 84.8822 254.318 83.9937C254.318 83.3167 254.149 82.7878 253.81 82.4069C253.514 82.0261 252.922 81.6665 252.033 81.328C251.144 80.9472 249.621 80.4394 247.463 79.8047C240.905 77.8584 237.626 74.283 237.626 69.0786C237.626 67.0899 238.197 65.2916 239.339 63.6837C240.482 62.0335 242.111 60.743 244.226 59.8121C246.384 58.8813 248.944 58.4158 251.906 58.4158Z" fill="white"/>
<defs>
<linearGradient id="paint0_linear_121_3607" x1="196.193" y1="-19.7951" x2="30.0952" y2="60.3554" gradientUnits="userSpaceOnUse">
<stop stop-color="#FFB639"/>
<stop offset="1" stop-color="#E49100"/>
</linearGradient>
<linearGradient id="paint1_linear_121_3607" x1="196.193" y1="-19.7951" x2="30.0952" y2="60.3554" gradientUnits="userSpaceOnUse">
<stop stop-color="#FFB639"/>
<stop offset="1" stop-color="#E49100"/>
</linearGradient>
</defs>
</svg>
