<svg width="14" height="10" viewBox="0 0 14 10" fill="none" xmlns="http://www.w3.org/2000/svg">
<path d="M13.7593 2.15079C14.1187 1.73147 14.0701 1.10017 13.6508 0.740743C13.2315 0.381321 12.6002 0.429883 12.2407 0.849209L13.7593 2.15079ZM7 8.5L6.24074 9.15079C6.43073 9.37244 6.70808 9.5 7 9.5C7.29192 9.5 7.56927 9.37244 7.75926 9.15079L7 8.5ZM1.75926 0.849209C1.39983 0.429883 0.768535 0.381321 0.349209 0.740743C-0.070117 1.10017 -0.118679 1.73147 0.240744 2.15079L1.75926 0.849209ZM12.2407 0.849209L6.24074 7.84921L7.75926 9.15079L13.7593 2.15079L12.2407 0.849209ZM7.75926 7.84921L1.75926 0.849209L0.240744 2.15079L6.24074 9.15079L7.75926 7.84921Z" fill="white"/>
</svg>
