<svg width="93" height="40" viewBox="0 0 93 40" fill="none" xmlns="http://www.w3.org/2000/svg">
<path d="M2.50049 11.5V15H30.5005V11.5L16.5005 5L2.50049 11.5Z" fill="#B9C6D6"/>
<path d="M4.50073 17.0001V16.0001H10.5007V17.0001H9.50073V28.5001H10.5007V29.5001H4.50073V28.5001H5.50073V17.0001H4.50073Z" fill="#B9C6D6"/>
<path d="M13.5005 17.0001V16.0001H19.5005V17.0001H18.5005V28.5001H19.5005V29.5001H13.5005V28.5001H14.5005V17.0001H13.5005Z" fill="#B9C6D6"/>
<path d="M23.0005 17.0001V16.0001H29.0005V17.0001H28.0005V28.5001H29.0005V29.5001H23.0005V28.5001H24.0005V17.0001H23.0005Z" fill="#B9C6D6"/>
<path d="M3.00049 30.7767H30.5005V32.0002H3.00049V30.7767Z" fill="#B9C6D6"/>
<path d="M1.00049 33H32.0005V35H1.00049V33Z" fill="#B9C6D6"/>
<path d="M38.7178 18.9999V11.7272H41.5019C42.0275 11.7272 42.4643 11.8101 42.8123 11.9758C43.1627 12.1391 43.4243 12.3629 43.5971 12.647C43.7723 12.931 43.8599 13.253 43.8599 13.6129C43.8599 13.9088 43.803 14.1621 43.6894 14.3728C43.5758 14.5811 43.4231 14.7504 43.2313 14.8806C43.0396 15.0108 42.8253 15.1043 42.5886 15.1612V15.2322C42.8466 15.2464 43.094 15.3257 43.3307 15.4701C43.5699 15.6122 43.7652 15.8134 43.9167 16.0738C44.0682 16.3342 44.144 16.6491 44.144 17.0184C44.144 17.3948 44.0528 17.7334 43.8705 18.034C43.6882 18.3323 43.4136 18.5679 43.0467 18.7407C42.6797 18.9135 42.2181 18.9999 41.6617 18.9999H38.7178ZM40.0353 17.8991H41.4522C41.9304 17.8991 42.2749 17.8079 42.4856 17.6256C42.6986 17.441 42.8052 17.2042 42.8052 16.9154C42.8052 16.7 42.7519 16.5059 42.6454 16.333C42.5388 16.1578 42.3873 16.0205 42.1908 15.9211C41.9943 15.8193 41.76 15.7684 41.4877 15.7684H40.0353V17.8991ZM40.0353 14.8203H41.3386C41.5658 14.8203 41.7706 14.7788 41.9529 14.696C42.1352 14.6107 42.2784 14.4912 42.3826 14.3373C42.4891 14.181 42.5424 13.9964 42.5424 13.7833C42.5424 13.5016 42.443 13.2696 42.2441 13.0873C42.0476 12.905 41.7552 12.8139 41.367 12.8139H40.0353V14.8203ZM46.374 18.9999H44.9678L47.5282 11.7272H49.1546L51.7185 18.9999H50.3122L48.3698 13.2187H48.313L46.374 18.9999ZM46.4202 16.1484H50.2554V17.2066H46.4202V16.1484ZM58.803 11.7272V18.9999H57.6311L54.2043 14.0461H54.1439V18.9999H52.8264V11.7272H54.0054L57.4287 16.6846H57.4926V11.7272H58.803ZM60.3885 18.9999V11.7272H61.706V15.0688H61.7948L64.6321 11.7272H66.2408L63.4283 14.9907L66.2657 18.9999H64.6818L62.5121 15.882L61.706 16.8337V18.9999H60.3885ZM38.3982 25.8316V24.7272H44.2008V25.8316H41.9529V31.9999H40.6461V25.8316H38.3982ZM45.4694 31.9999V24.7272H48.1967C48.7554 24.7272 49.2241 24.8243 49.6029 25.0184C49.9841 25.2125 50.2717 25.4848 50.4658 25.8352C50.6623 26.1832 50.7606 26.5892 50.7606 27.0532C50.7606 27.5196 50.6611 27.9244 50.4623 28.2677C50.2658 28.6086 49.9758 28.8726 49.5922 29.0596C49.2087 29.2443 48.7376 29.3366 48.1789 29.3366H46.2364V28.2428H48.0013C48.328 28.2428 48.5956 28.1979 48.8039 28.1079C49.0122 28.0156 49.1661 27.8818 49.2655 27.7066C49.3673 27.5291 49.4182 27.3113 49.4182 27.0532C49.4182 26.7952 49.3673 26.575 49.2655 26.3927C49.1637 26.208 49.0087 26.0684 48.8003 25.9737C48.592 25.8766 48.3233 25.8281 47.9942 25.8281H46.7869V31.9999H45.4694ZM49.2265 28.7045L51.0269 31.9999H49.5567L47.7883 28.7045H49.2265ZM53.0572 31.9999H51.651L54.2114 24.7272H55.8378L58.4017 31.9999H56.9954L55.053 26.2187H54.9962L53.0572 31.9999ZM53.1034 29.1484H56.9386V30.2066H53.1034V29.1484ZM65.4862 24.7272V31.9999H64.3143L60.8875 27.0461H60.8271V31.9999H59.5096V24.7272H60.6886L64.1119 29.6846H64.1758V24.7272H65.4862ZM71.0241 26.7265C70.991 26.4164 70.8513 26.1749 70.6051 26.0021C70.3613 25.8292 70.044 25.7428 69.6534 25.7428C69.3788 25.7428 69.1432 25.7843 68.9467 25.8671C68.7502 25.95 68.5999 26.0624 68.4957 26.2045C68.3916 26.3465 68.3383 26.5087 68.3359 26.691C68.3359 26.8425 68.3703 26.9739 68.4389 27.0852C68.5099 27.1964 68.6058 27.2911 68.7266 27.3693C68.8473 27.445 68.9811 27.5089 69.1278 27.561C69.2746 27.6131 69.4226 27.6569 69.5717 27.6924L70.2535 27.8629C70.5282 27.9268 70.7921 28.0132 71.0454 28.1221C71.3011 28.231 71.5296 28.3683 71.7308 28.534C71.9344 28.6997 72.0954 28.8998 72.2138 29.1342C72.3321 29.3685 72.3913 29.6432 72.3913 29.958C72.3913 30.3842 72.2824 30.7594 72.0646 31.0837C71.8468 31.4057 71.5319 31.6578 71.12 31.8401C70.7105 32.0201 70.2145 32.11 69.6321 32.11C69.0663 32.11 68.575 32.0224 68.1584 31.8472C67.7441 31.6721 67.4197 31.4164 67.1854 31.0802C66.9534 30.744 66.8279 30.3345 66.8089 29.8515H68.1051C68.124 30.1048 68.2022 30.3155 68.3395 30.4836C68.4768 30.6517 68.6555 30.7772 68.8757 30.86C69.0982 30.9429 69.3468 30.9843 69.6214 30.9843C69.9079 30.9843 70.1588 30.9417 70.3743 30.8565C70.5921 30.7689 70.7625 30.6481 70.8856 30.4943C71.0087 30.338 71.0715 30.1557 71.0739 29.9474C71.0715 29.758 71.0159 29.6017 70.9069 29.4786C70.798 29.3532 70.6453 29.249 70.4489 29.1661C70.2547 29.0809 70.0275 29.0051 69.767 28.9389L68.9396 28.7258C68.3407 28.5719 67.8672 28.3387 67.5192 28.0262C67.1735 27.7114 67.0007 27.2935 67.0007 26.7727C67.0007 26.3442 67.1167 25.9689 67.3487 25.647C67.5831 25.325 67.9015 25.0752 68.304 24.8977C68.7064 24.7177 69.1622 24.6278 69.6712 24.6278C70.1873 24.6278 70.6394 24.7177 71.0277 24.8977C71.4183 25.0752 71.7249 25.3226 71.9474 25.6399C72.17 25.9547 72.2848 26.3169 72.2919 26.7265H71.0241ZM73.7159 31.9999V24.7272H78.375V25.8316H75.0333V27.806H78.0553V28.9105H75.0333V31.9999H73.7159ZM79.7252 31.9999V24.7272H84.4554V25.8316H81.0427V27.806H84.2103V28.9105H81.0427V30.8955H84.4838V31.9999H79.7252ZM85.9495 31.9999V24.7272H88.6767C89.2354 24.7272 89.7042 24.8243 90.083 25.0184C90.4641 25.2125 90.7518 25.4848 90.9459 25.8352C91.1424 26.1832 91.2406 26.5892 91.2406 27.0532C91.2406 27.5196 91.1412 27.9244 90.9424 28.2677C90.7459 28.6086 90.4558 28.8726 90.0723 29.0596C89.6888 29.2443 89.2177 29.3366 88.659 29.3366H86.7165V28.2428H88.4814C88.8081 28.2428 89.0756 28.1979 89.284 28.1079C89.4923 28.0156 89.6462 27.8818 89.7456 27.7066C89.8474 27.5291 89.8983 27.3113 89.8983 27.0532C89.8983 26.7952 89.8474 26.575 89.7456 26.3927C89.6438 26.208 89.4888 26.0684 89.2804 25.9737C89.0721 25.8766 88.8034 25.8281 88.4743 25.8281H87.2669V31.9999H85.9495ZM89.7066 28.7045L91.507 31.9999H90.0368L88.2683 28.7045H89.7066Z" fill="#B9C6D6"/>
</svg>
