<svg width="64" height="40" viewBox="0 0 64 40" fill="none" xmlns="http://www.w3.org/2000/svg">
<g clip-path="url(#clip0_113_2663)">
<rect x="0.000732422" y="13.3935" width="5.75709" height="21.8769" fill="#B9C6D6"/>
<rect x="47.2091" y="13.3935" width="5.75709" height="21.8769" fill="#B9C6D6"/>
<ellipse cx="2.87903" cy="8.78772" rx="2.87855" ry="3.45425" fill="#B9C6D6"/>
<ellipse cx="50.0877" cy="8.78769" rx="2.87855" ry="3.45425" fill="#B9C6D6"/>
<path d="M60.4497 13.9691H64.4797V17.9991H60.4497V28.3619C60.4497 28.5538 60.5648 29.0527 61.0254 29.5133C61.486 29.9738 62.1768 30.089 63.3282 30.089V35.2704C62.7525 35.2704 59.4114 35.6148 57.5711 34.6947C55.9007 33.8594 55.2683 31.2404 55.2683 29.5133V7.63632H60.4497V13.9691Z" fill="#B9C6D6"/>
<path fill-rule="evenodd" clip-rule="evenodd" d="M37.9974 5.33344H32.2404V35.2703H37.9974V33.7114C38.8414 34.6675 40.076 35.2704 41.4515 35.2704C43.9951 35.2704 46.0572 33.2084 46.0572 30.6647V16.8477C46.0572 14.3041 43.9951 12.2421 41.4515 12.2421C40.076 12.2421 38.8414 12.845 37.9974 13.801V5.33344ZM37.9974 17.0414V30.4711C38.2591 30.5953 38.5517 30.6648 38.8605 30.6648C39.9734 30.6648 40.8755 29.7626 40.8755 28.6498V18.8627C40.8755 17.7499 39.9734 16.8477 38.8605 16.8477C38.5517 16.8477 38.2591 16.9172 37.9974 17.0414Z" fill="#B9C6D6"/>
<path fill-rule="evenodd" clip-rule="evenodd" d="M8.06128 35.2702C11.645 34.9117 15.0522 32.807 15.9014 29.307C16.037 28.7482 16.1207 28.2252 16.1207 27.786V20.3018V12.8176C16.1207 11.9506 15.9227 10.9596 15.641 9.98862C14.7937 7.0672 11.77 5.53373 8.74361 5.83998L8.60394 5.85412C8.42351 5.87238 8.24243 5.88236 8.06128 5.88406V11.1292C8.80034 11.2106 10.0271 11.4625 10.3637 12.2419C10.7104 13.0449 10.9394 14.261 10.9394 15.1204V20.3018V25.4832C10.9394 26.348 10.7133 27.5553 10.3637 28.3617C10.028 29.136 8.8006 29.6602 8.06128 29.9134V35.2702Z" fill="#B9C6D6"/>
<path fill-rule="evenodd" clip-rule="evenodd" d="M17.2716 19.1506C17.2716 15.3351 20.3647 12.2421 24.1801 12.2421C27.9956 12.2421 31.0886 15.3351 31.0886 19.1506V25.4837H22.453L22.453 28.9379C22.453 30.0893 23.4441 30.6651 24.1801 30.6651C25.9073 30.6651 25.9075 28.9379 25.9073 28.3622H31.0886C31.0885 32.1776 27.9955 35.2705 24.1801 35.2705C20.3647 35.2705 17.2716 32.1774 17.2716 28.362V19.1506ZM24.1801 16.848C25.9073 16.848 25.9075 18.5751 25.9073 19.1508V22.0294H22.453L22.453 18.5751C22.453 17.4237 23.4441 16.848 24.1801 16.848Z" fill="#B9C6D6"/>
</g>
<defs>
<clipPath id="clip0_113_2663">
<rect width="64" height="40" fill="white"/>
</clipPath>
</defs>
</svg>
