<svg width="26" height="26" viewBox="0 0 26 26" fill="none" xmlns="http://www.w3.org/2000/svg">
<path fill-rule="evenodd" clip-rule="evenodd" d="M17.9998 14.25C17.6679 14.25 17.3497 14.1182 17.115 13.8835C16.8804 13.6489 16.7485 13.3306 16.7485 12.9988C16.7485 12.6669 16.8804 12.3486 17.115 12.114C17.3497 11.8793 17.6679 11.7475 17.9998 11.7475C18.3316 11.7475 18.6499 11.8793 18.8845 12.114C19.1192 12.3486 19.251 12.6669 19.251 12.9988C19.251 13.3306 19.1192 13.6489 18.8845 13.8835C18.6499 14.1182 18.3316 14.25 17.9998 14.25ZM12.9998 14.25C12.6679 14.25 12.3497 14.1182 12.115 13.8835C11.8804 13.6489 11.7485 13.3306 11.7485 12.9988C11.7485 12.6669 11.8804 12.3486 12.115 12.114C12.3497 11.8793 12.6679 11.7475 12.9998 11.7475C13.3316 11.7475 13.6499 11.8793 13.8845 12.114C14.1192 12.3486 14.251 12.6669 14.251 12.9988C14.251 13.3306 14.1192 13.6489 13.8845 13.8835C13.6499 14.1182 13.3316 14.25 12.9998 14.25ZM7.99977 14.25C7.66792 14.25 7.34966 14.1182 7.11501 13.8835C6.88035 13.6489 6.74852 13.3306 6.74852 12.9988C6.74852 12.6669 6.88035 12.3486 7.11501 12.114C7.34966 11.8793 7.66792 11.7475 7.99977 11.7475C8.33163 11.7475 8.64989 11.8793 8.88454 12.114C9.1192 12.3486 9.25102 12.6669 9.25102 12.9988C9.25102 13.3306 9.1192 13.6489 8.88454 13.8835C8.64989 14.1182 8.33163 14.25 7.99977 14.25ZM21.8373 4.16C18.9835 1.305 15.0323 0.0312505 10.996 0.655001C5.89977 1.45 1.67477 5.555 0.721024 10.6388C0.259282 13.0635 0.524562 15.5706 1.48352 17.845C1.60727 18.1325 1.64477 18.4025 1.59602 18.645L0.524773 24.0037C0.484307 24.2054 0.494293 24.414 0.553844 24.6109C0.613395 24.8078 0.720666 24.9869 0.866124 25.1324C1.01158 25.2779 1.19072 25.3851 1.38762 25.4447C1.58452 25.5042 1.79308 25.5142 1.99477 25.4738L7.34852 24.4037C7.65602 24.345 7.95477 24.4313 8.15352 24.5138C10.421 25.4725 12.9135 25.735 15.3598 25.2775C20.4435 24.3238 24.5473 20.0988 25.3435 15.0025C25.9723 10.9675 24.6935 7.01625 21.8385 4.16H21.8373Z" fill="white"/>
</svg>
