<svg width="50" height="51" viewBox="0 0 50 51" fill="none" xmlns="http://www.w3.org/2000/svg">
<path d="M48.972 25.0467C48.972 38.3137 38.2375 49.0654 25 49.0654C11.7625 49.0654 1.02804 38.3137 1.02804 25.0467C1.02804 11.7798 11.7625 1.02804 25 1.02804C38.2375 1.02804 48.972 11.7798 48.972 25.0467Z" stroke="white" stroke-width="2.05607"/>
<path d="M17.9938 14.0586H12.9907V18.5974H14.7438C14.9667 18.5974 15.1804 18.6825 15.338 18.8338C15.4956 18.9851 15.5842 19.1903 15.5842 19.4043V31.3187C15.5842 31.3588 15.5676 31.3973 15.538 31.4257C15.5085 31.4541 15.4684 31.47 15.4266 31.47H12.9907V36.1223H17.9938C18.0099 36.1214 18.0259 36.1237 18.041 36.1291C18.0561 36.1344 18.07 36.1426 18.0816 36.1532C18.0933 36.1638 18.1026 36.1766 18.109 36.1908C18.1153 36.205 18.1186 36.2203 18.1185 36.2358V41.6193H20.7974V8.50488H18.1185V13.9452C18.1186 13.9606 18.1153 13.9759 18.109 13.9901C18.1026 14.0043 18.0933 14.0171 18.0816 14.0277C18.07 14.0383 18.0561 14.0465 18.041 14.0519C18.0259 14.0572 18.0099 14.0595 17.9938 14.0586Z" fill="url(#paint0_linear_247_4682)"/>
<path d="M36.6667 28.2046C36.5309 27.7134 36.3301 27.241 36.0692 26.7988C35.7935 26.3346 35.4509 25.9102 35.0515 25.538C34.7016 25.1993 34.301 24.9125 33.8631 24.687C33.8399 24.6744 33.8206 24.656 33.8072 24.6339C33.7938 24.6117 33.7867 24.5866 33.7867 24.5609C33.7867 24.5353 33.7938 24.5101 33.8072 24.488C33.8206 24.4658 33.8399 24.4475 33.8631 24.4349C34.2192 24.2434 34.5462 24.0058 34.8349 23.7288C35.1822 23.3976 35.4804 23.0222 35.7212 22.613C35.9473 22.2133 36.1257 21.7904 36.2531 21.3522C36.3688 20.956 36.4306 20.5471 36.4369 20.1356C36.4402 19.3549 36.3162 18.5785 36.0692 17.8347C35.8397 17.1166 35.4447 16.4573 34.9137 15.9057C34.3176 15.3189 33.5995 14.8593 32.8061 14.5566C31.8274 14.2009 30.7859 14.0317 29.7399 14.0586H28.4858C28.4538 14.0587 28.4231 14.0469 28.3999 14.0258C28.3766 14.0047 28.3628 13.9758 28.3611 13.9452V8.50488H25.6823V13.9452C25.6823 13.9606 25.679 13.9759 25.6727 13.9901C25.6663 14.0043 25.657 14.0171 25.6454 14.0277C25.6337 14.0383 25.6199 14.0465 25.6048 14.0519C25.5896 14.0572 25.5736 14.0595 25.5575 14.0586H24.5077C24.4807 14.0573 24.4538 14.0617 24.4289 14.0715C24.4039 14.0814 24.3815 14.0963 24.3632 14.1154L23.2267 15.414C23.1772 15.4605 23.1489 15.524 23.1479 15.5905V18.5974H28.2954C28.6634 18.5578 29.036 18.5893 29.3912 18.69C29.7464 18.7907 30.077 18.9585 30.3636 19.1837C30.7644 19.5951 30.9833 20.1397 30.9742 20.7029C30.9762 20.9623 30.9183 21.219 30.8048 21.4544C30.6913 21.6898 30.5249 21.8982 30.3177 22.0646C29.7338 22.4678 29.0183 22.6558 28.302 22.5941H24.8025V26.906H28.5449C28.9129 26.8716 29.2843 26.9165 29.6319 27.0376C29.9795 27.1586 30.2946 27.3528 30.554 27.6057C30.9713 28.0905 31.1906 28.7044 31.1712 29.333C31.1854 29.6358 31.1344 29.9382 31.0214 30.2213C30.9084 30.5044 30.7359 30.7621 30.5146 30.9783C30.2455 31.2025 29.9331 31.3735 29.5951 31.4817C29.2571 31.5898 28.9003 31.633 28.5449 31.6087H23.1479V36.116H25.5575C25.5736 36.1151 25.5896 36.1174 25.6048 36.1228C25.6199 36.1281 25.6337 36.1363 25.6454 36.1469C25.657 36.1575 25.6663 36.1703 25.6727 36.1845C25.679 36.1987 25.6823 36.214 25.6823 36.2295V41.676H28.3479V36.2295C28.3496 36.1988 28.3635 36.1699 28.3867 36.1488C28.4099 36.1277 28.4407 36.116 28.4727 36.116H30.3177C31.2542 36.117 32.1827 35.9502 33.0556 35.6243C33.8556 35.3165 34.5735 34.8405 35.1566 34.2311C35.7405 33.6283 36.1877 32.9156 36.4697 32.1382C36.7582 31.2987 36.898 30.4186 36.8834 29.5347C36.874 29.084 36.8011 28.6365 36.6667 28.2046Z" fill="url(#paint1_linear_247_4682)"/>
<defs>
<linearGradient id="paint0_linear_247_4682" x1="30.6226" y1="3.6046" x2="12.7675" y2="6.73254" gradientUnits="userSpaceOnUse">
<stop stop-color="#FFB639"/>
<stop offset="1" stop-color="#E49100"/>
</linearGradient>
<linearGradient id="paint1_linear_247_4682" x1="30.6226" y1="3.6046" x2="12.7675" y2="6.73254" gradientUnits="userSpaceOnUse">
<stop stop-color="#FFB639"/>
<stop offset="1" stop-color="#E49100"/>
</linearGradient>
</defs>
</svg>
